<?xml version="1.0" encoding="UTF-8"?>
<svg width="800" height="300" viewBox="0 0 800 300" fill="none" xmlns="http://www.w3.org/2000/svg">
  <!-- Background rounded rectangle -->
  <rect x="20" y="20" width="760" height="260" rx="30" fill="#f0f9ff"/>
  
  <!-- Road at bottom -->
  <rect x="20" y="200" width="760" height="40" rx="5" fill="#334155"/>
  <rect x="50" y="218" width="80" height="6" rx="3" fill="white"/>
  <rect x="180" y="218" width="80" height="6" rx="3" fill="white"/>
  <rect x="310" y="218" width="80" height="6" rx="3" fill="white"/>
  <rect x="440" y="218" width="80" height="6" rx="3" fill="white"/>
  <rect x="570" y="218" width="80" height="6" rx="3" fill="white"/>
  <rect x="700" y="218" width="50" height="6" rx="3" fill="white"/>
  
  <!-- Truck cab -->
  <rect x="130" y="100" width="140" height="100" rx="12" fill="#1d4ed8"/>
  <rect x="145" y="115" width="90" height="55" rx="5" fill="#dbeafe"/>
  
  <!-- Truck trailer -->
  <rect x="270" y="120" width="220" height="80" rx="6" fill="#60a5fa"/>
  <rect x="275" y="125" width="210" height="70" rx="4" fill="#dbeafe" stroke="#60a5fa" stroke-width="3"/>
  
  <!-- Wheels -->
  <circle cx="170" cy="200" r="25" fill="#1e293b"/>
  <circle cx="170" cy="200" r="15" fill="#94a3b8"/>
  <circle cx="320" cy="200" r="25" fill="#1e293b"/>
  <circle cx="320" cy="200" r="15" fill="#94a3b8"/>
  <circle cx="420" cy="200" r="25" fill="#1e293b"/>
  <circle cx="420" cy="200" r="15" fill="#94a3b8"/>
</svg> 